<svg xmlns="http://www.w3.org/2000/svg" height="24px" viewBox="0 -960 960 960" width="24px" fill="currentColor"><path d="M560-152.31v-96.92h80v100q0 12.38-8.42 20.81-8.43 8.42-20.81 8.42h-18.46q-13.93 0-23.12-9.19-9.19-9.19-9.19-23.12Zm-240 0V-280H135.31q-19.39 0-28.46-17.15-9.08-17.16 1.61-33.31L234-520h-15.39q-19.15 0-28.73-17.04-9.57-17.04 2.12-33.19L333.15-773q5.23-7.23 12.31-10.58 7.08-3.34 14.54-3.34 7.46 0 14.54 3.34 7.08 3.35 12.31 10.58L528-570.23q11.69 16.15 2.12 33.19Q520.54-520 501.39-520H486l125.77 189.54q10.69 16.15 1.62 33.31Q604.31-280 584.92-280H400v130.77q0 12.38-8.42 20.81-8.43 8.42-20.81 8.42h-18.46q-13.93 0-23.12-9.19-9.19-9.19-9.19-23.12ZM681.54-280 543.08-489.23H560q19.39 0 28.96-17.27 9.58-17.27-2.11-33.42l-88-125.39L573.15-773q5.23-7.23 12.31-10.58 7.08-3.34 14.54-3.34 7.46 0 14.54 3.34 7.08 3.35 12.31 10.58L768-570.23q11.69 16.15 2.12 33.19Q760.54-520 741.39-520H726l125.54 189.54q10.69 16.15 1.61 33.31Q844.08-280 824.69-280H681.54Z"/></svg>